<?xml version="1.0" encoding="UTF-8" standalone="no"?>
<svg
   viewBox="0 0 576 512"
   version="1.1"
   id="svg1"
   sodipodi:docname="plane-solid.svg"
   inkscape:version="1.4 (e7c3feb1, 2024-10-09)"
   xmlns:inkscape="http://www.inkscape.org/namespaces/inkscape"
   xmlns:sodipodi="http://sodipodi.sourceforge.net/DTD/sodipodi-0.dtd"
   xmlns="http://www.w3.org/2000/svg"
   xmlns:svg="http://www.w3.org/2000/svg">
  <defs
     id="defs1" />
  <sodipodi:namedview
     id="namedview1"
     pagecolor="#ffffff"
     bordercolor="#000000"
     borderopacity="0.25"
     inkscape:showpageshadow="2"
     inkscape:pageopacity="0.0"
     inkscape:pagecheckerboard="0"
     inkscape:deskcolor="#d1d1d1"
     inkscape:zoom="0.086655145"
     inkscape:cx="-178.86993"
     inkscape:cy="721.24973"
     inkscape:window-width="1104"
     inkscape:window-height="518"
     inkscape:window-x="0"
     inkscape:window-y="37"
     inkscape:window-maximized="0"
     inkscape:current-layer="svg1" />
  <!--!Font Awesome Free 6.7.2 by @fontawesome - https://fontawesome.com License - https://fontawesome.com/license/free Copyright 2025 Fonticons, Inc.-->
  <path
     d="M 93.7,192 C 59.5,192 0,221 0,256 c 0,36 59.5,64 93.7,64 h 116.6 l 100.5,175.9 c 5.7,10 16.3,16.1 27.8,16.1 h 56.2 c 10.6,0 18.3,-10.2 15.4,-20.4 L 361.2,320 H 464 l 43.2,57.6 c 3,4 7.8,6.4 12.8,6.4 h 42 c 7.8,0 14,-6.3 14,-14 0,-1.3 -0.2,-2.6 -0.5,-3.9 L 544,256 575.5,145.9 c 0.4,-1.3 0.5,-2.6 0.5,-3.9 0,-7.8 -6.3,-14 -14,-14 h -42 c -5,0 -9.8,2.4 -12.8,6.4 L 464,192 H 361.1 l 49,-171.6 C 413.1,10.2 405.4,0 394.8,0 H 338.6 C 327.1,0 316.5,6.2 310.8,16.1 L 210.3,192 Z"
     id="path1" />
</svg>
